<svg xmlns="http://www.w3.org/2000/svg" xmlns:xlink="http://www.w3.org/1999/xlink" width="120" zoomAndPan="magnify" viewBox="0 0 90 89.999999" height="120" preserveAspectRatio="xMidYMid meet" version="1.0"><rect x="-9" width="108" fill="#ffffff" y="-9" height="107.999999" fill-opacity="1"/><rect x="-9" width="108" fill="#ffffff" y="-9" height="107.999999" fill-opacity="1"/><rect x="-9" width="108" fill="#ffffff" y="-9" height="107.999999" fill-opacity="1"/><path fill="#fae045" d="M 109.546875 30 L -19.351562 30 L -19.351562 0 L 109.546875 0 L 109.546875 30 " fill-opacity="1" fill-rule="nonzero"/><path fill="#21418e" d="M 109.546875 60 L -19.351562 60 L -19.351562 30 L 109.546875 30 L 109.546875 60 " fill-opacity="1" fill-rule="nonzero"/><path fill="#e40001" d="M 109.546875 90 L -19.351562 90 L -19.351562 60 L 109.546875 60 L 109.546875 90 " fill-opacity="1" fill-rule="nonzero"/><path fill="#f2f2f2" d="M 18.980469 51.90625 C 19.457031 51.84375 19.933594 51.792969 20.402344 51.75 L 20.757812 51.71875 L 21.113281 51.691406 C 21.351562 51.671875 21.585938 51.65625 21.824219 51.644531 C 22.074219 50.710938 22.394531 49.792969 22.765625 48.898438 C 22.976562 49.832031 23.246094 50.730469 23.566406 51.585938 C 23.800781 51.585938 24.035156 51.585938 24.269531 51.585938 C 24.503906 51.589844 24.738281 51.59375 24.972656 51.601562 C 25.203125 51.605469 25.4375 51.617188 25.667969 51.625 C 25.902344 51.636719 26.132812 51.648438 26.363281 51.664062 C 25.632812 52.085938 24.917969 52.574219 24.21875 53.121094 C 24.601562 53.921875 25.03125 54.675781 25.5 55.378906 C 24.648438 55.023438 23.792969 54.632812 22.957031 54.214844 C 22.292969 54.839844 21.652344 55.527344 21.050781 56.273438 C 21.078125 55.789062 21.128906 55.308594 21.1875 54.828125 C 21.25 54.347656 21.320312 53.867188 21.417969 53.394531 C 21.003906 53.160156 20.59375 52.921875 20.1875 52.675781 C 19.785156 52.425781 19.382812 52.171875 18.980469 51.90625 " fill-opacity="1" fill-rule="nonzero"/><path fill="#f2f2f2" d="M 23.164062 42.6875 C 23.628906 42.8125 24.085938 42.945312 24.539062 43.085938 C 24.992188 43.230469 25.441406 43.378906 25.886719 43.535156 C 25.960938 43.4375 26.039062 43.34375 26.113281 43.25 C 26.1875 43.15625 26.265625 43.0625 26.34375 42.96875 L 26.578125 42.691406 C 26.617188 42.644531 26.652344 42.597656 26.695312 42.554688 L 26.816406 42.417969 C 26.894531 42.328125 26.976562 42.234375 27.058594 42.144531 L 27.304688 41.878906 L 27.429688 41.746094 L 27.554688 41.617188 L 27.808594 41.359375 C 27.648438 42.304688 27.550781 43.238281 27.519531 44.152344 L 27.84375 44.285156 L 28.167969 44.421875 C 28.386719 44.511719 28.601562 44.605469 28.8125 44.703125 C 29.027344 44.796875 29.238281 44.894531 29.445312 44.992188 C 29.65625 45.089844 29.867188 45.191406 30.078125 45.296875 C 29.238281 45.40625 28.390625 45.582031 27.535156 45.820312 C 27.578125 46.707031 27.6875 47.566406 27.847656 48.394531 C 27.523438 48.066406 27.199219 47.730469 26.882812 47.390625 L 26.644531 47.132812 L 26.410156 46.871094 C 26.253906 46.695312 26.101562 46.519531 25.949219 46.34375 C 25.09375 46.664062 24.238281 47.054688 23.394531 47.511719 C 23.449219 47.402344 23.5 47.292969 23.554688 47.1875 L 23.726562 46.863281 L 23.808594 46.703125 L 23.898438 46.546875 L 24.078125 46.230469 L 24.261719 45.917969 L 24.355469 45.761719 C 24.382812 45.707031 24.417969 45.65625 24.449219 45.605469 L 24.640625 45.296875 C 24.707031 45.195312 24.773438 45.09375 24.839844 44.992188 C 24.695312 44.808594 24.550781 44.621094 24.40625 44.429688 C 24.265625 44.242188 24.125 44.050781 23.984375 43.859375 C 23.84375 43.667969 23.707031 43.472656 23.570312 43.277344 L 23.367188 42.984375 L 23.164062 42.6875 " fill-opacity="1" fill-rule="nonzero"/><path fill="#f2f2f2" d="M 30.550781 35.773438 C 30.738281 35.917969 30.925781 36.066406 31.113281 36.214844 C 31.296875 36.363281 31.484375 36.515625 31.664062 36.667969 C 31.847656 36.820312 32.03125 36.972656 32.210938 37.125 C 32.390625 37.28125 32.566406 37.433594 32.742188 37.59375 C 32.953125 37.476562 33.164062 37.355469 33.378906 37.246094 C 33.488281 37.1875 33.59375 37.128906 33.703125 37.074219 L 34.027344 36.914062 C 34.082031 36.886719 34.136719 36.859375 34.191406 36.832031 L 34.355469 36.757812 L 34.683594 36.601562 L 35.015625 36.457031 L 35.183594 36.386719 C 35.238281 36.359375 35.296875 36.339844 35.351562 36.316406 C 34.839844 37.128906 34.394531 37.953125 34.015625 38.785156 C 34.351562 39.117188 34.679688 39.449219 35 39.785156 C 35.320312 40.125 35.636719 40.472656 35.941406 40.816406 C 35.125 40.601562 34.273438 40.4375 33.394531 40.335938 C 33.097656 41.171875 32.867188 42.007812 32.703125 42.835938 C 32.613281 42.621094 32.527344 42.40625 32.441406 42.1875 C 32.355469 41.972656 32.273438 41.753906 32.191406 41.535156 C 32.03125 41.101562 31.875 40.660156 31.726562 40.210938 C 30.8125 40.183594 29.875 40.21875 28.921875 40.320312 C 28.964844 40.277344 29.011719 40.238281 29.058594 40.199219 L 29.195312 40.082031 L 29.472656 39.847656 L 29.753906 39.621094 L 30.042969 39.394531 L 30.328125 39.175781 L 30.625 38.960938 L 30.769531 38.851562 C 30.820312 38.816406 30.871094 38.785156 30.917969 38.75 L 31.21875 38.542969 C 30.964844 37.636719 30.738281 36.707031 30.550781 35.773438 " fill-opacity="1" fill-rule="nonzero"/><path fill="#f2f2f2" d="M 40.03125 32.207031 C 40.148438 32.414062 40.265625 32.621094 40.378906 32.832031 C 40.492188 33.039062 40.605469 33.25 40.714844 33.460938 C 40.828125 33.671875 40.933594 33.882812 41.042969 34.09375 C 41.148438 34.304688 41.25 34.515625 41.355469 34.730469 C 42.316406 34.613281 43.285156 34.550781 44.25 34.550781 C 43.46875 35.105469 42.738281 35.695312 42.070312 36.320312 C 42.253906 36.753906 42.429688 37.1875 42.59375 37.625 L 42.71875 37.949219 L 42.835938 38.277344 C 42.917969 38.496094 42.992188 38.71875 43.066406 38.9375 C 42.398438 38.421875 41.671875 37.945312 40.898438 37.511719 C 40.304688 38.167969 39.773438 38.851562 39.300781 39.554688 C 39.304688 39.089844 39.3125 38.621094 39.328125 38.160156 C 39.347656 37.691406 39.375 37.222656 39.410156 36.757812 C 38.574219 36.378906 37.695312 36.050781 36.773438 35.777344 C 37.695312 35.46875 38.632812 35.214844 39.582031 35.019531 C 39.636719 34.554688 39.703125 34.085938 39.777344 33.613281 L 39.835938 33.261719 L 39.898438 32.910156 C 39.9375 32.675781 39.984375 32.441406 40.03125 32.207031 " fill-opacity="1" fill-rule="nonzero"/><path fill="#f2f2f2" d="M 50.140625 32.535156 C 50.203125 33.011719 50.253906 33.484375 50.300781 33.957031 L 50.332031 34.3125 L 50.359375 34.667969 C 50.375 34.902344 50.390625 35.140625 50.402344 35.375 C 51.339844 35.628906 52.257812 35.945312 53.152344 36.316406 C 52.214844 36.527344 51.316406 36.796875 50.460938 37.117188 C 50.460938 37.351562 50.464844 37.585938 50.460938 37.820312 C 50.460938 38.054688 50.453125 38.289062 50.449219 38.519531 C 50.441406 38.753906 50.433594 38.988281 50.421875 39.21875 C 50.410156 39.449219 50.398438 39.683594 50.382812 39.914062 C 49.960938 39.183594 49.472656 38.46875 48.925781 37.769531 C 48.125 38.152344 47.371094 38.582031 46.667969 39.050781 C 47.023438 38.199219 47.414062 37.34375 47.832031 36.507812 C 47.207031 35.84375 46.519531 35.203125 45.773438 34.601562 C 46.253906 34.628906 46.738281 34.679688 47.21875 34.738281 C 47.699219 34.804688 48.179688 34.875 48.652344 34.96875 C 48.886719 34.554688 49.125 34.144531 49.371094 33.742188 C 49.621094 33.335938 49.875 32.933594 50.140625 32.535156 " fill-opacity="1" fill-rule="nonzero"/><path fill="#f2f2f2" d="M 59.367188 36.714844 C 59.238281 37.179688 59.105469 37.636719 58.964844 38.089844 C 58.824219 38.542969 58.671875 38.992188 58.515625 39.4375 C 58.613281 39.511719 58.707031 39.585938 58.800781 39.664062 C 58.894531 39.738281 58.992188 39.8125 59.082031 39.890625 L 59.359375 40.125 C 59.40625 40.164062 59.453125 40.203125 59.5 40.246094 L 59.636719 40.363281 C 59.726562 40.445312 59.816406 40.523438 59.90625 40.605469 L 60.171875 40.855469 L 60.304688 40.976562 L 60.433594 41.105469 L 60.695312 41.359375 C 59.75 41.195312 58.8125 41.101562 57.898438 41.070312 L 57.765625 41.394531 L 57.628906 41.71875 C 57.539062 41.933594 57.445312 42.148438 57.347656 42.359375 C 57.253906 42.574219 57.15625 42.785156 57.058594 42.996094 C 56.960938 43.207031 56.859375 43.417969 56.757812 43.625 C 56.644531 42.789062 56.46875 41.9375 56.230469 41.082031 C 55.34375 41.128906 54.480469 41.234375 53.652344 41.398438 C 53.980469 41.070312 54.316406 40.75 54.660156 40.429688 L 54.917969 40.195312 L 55.179688 39.960938 C 55.351562 39.804688 55.53125 39.652344 55.707031 39.496094 C 55.386719 38.640625 54.996094 37.789062 54.539062 36.945312 C 54.648438 37 54.753906 37.050781 54.863281 37.105469 L 55.183594 37.277344 L 55.347656 37.359375 L 55.503906 37.449219 L 55.820312 37.628906 L 56.132812 37.8125 L 56.289062 37.902344 C 56.34375 37.933594 56.394531 37.96875 56.445312 38 L 56.753906 38.191406 C 56.855469 38.257812 56.957031 38.324219 57.058594 38.390625 C 57.242188 38.246094 57.429688 38.101562 57.621094 37.957031 C 57.808594 37.816406 58 37.675781 58.191406 37.535156 C 58.386719 37.394531 58.578125 37.257812 58.773438 37.121094 L 59.367188 36.714844 " fill-opacity="1" fill-rule="nonzero"/><path fill="#f2f2f2" d="M 66.28125 44.097656 C 66.136719 44.285156 65.988281 44.472656 65.839844 44.660156 C 65.691406 44.84375 65.539062 45.03125 65.386719 45.214844 C 65.234375 45.394531 65.082031 45.578125 64.929688 45.757812 C 64.773438 45.9375 64.621094 46.113281 64.460938 46.289062 C 64.578125 46.5 64.699219 46.710938 64.8125 46.925781 C 64.867188 47.035156 64.925781 47.140625 64.980469 47.246094 L 65.140625 47.574219 C 65.167969 47.628906 65.195312 47.679688 65.222656 47.734375 L 65.296875 47.898438 L 65.453125 48.230469 L 65.597656 48.5625 L 65.671875 48.730469 C 65.695312 48.785156 65.714844 48.839844 65.738281 48.898438 C 64.929688 48.386719 64.101562 47.941406 63.269531 47.5625 C 62.9375 47.898438 62.605469 48.226562 62.265625 48.546875 C 61.929688 48.867188 61.582031 49.179688 61.234375 49.488281 C 61.453125 48.671875 61.613281 47.820312 61.71875 46.941406 C 60.882812 46.644531 60.042969 46.414062 59.214844 46.25 C 59.429688 46.160156 59.644531 46.074219 59.863281 45.988281 C 60.078125 45.902344 60.296875 45.820312 60.515625 45.738281 C 60.953125 45.578125 61.394531 45.421875 61.839844 45.273438 C 61.871094 44.359375 61.835938 43.421875 61.734375 42.46875 C 61.773438 42.515625 61.816406 42.558594 61.855469 42.605469 L 61.972656 42.742188 L 62.207031 43.019531 L 62.433594 43.304688 L 62.546875 43.445312 L 62.660156 43.589844 L 62.878906 43.878906 L 63.09375 44.171875 L 63.199219 44.316406 C 63.234375 44.367188 63.269531 44.417969 63.304688 44.464844 L 63.511719 44.765625 C 64.417969 44.511719 65.347656 44.285156 66.28125 44.097656 " fill-opacity="1" fill-rule="nonzero"/><path fill="#f2f2f2" d="M 69.851562 53.574219 C 69.640625 53.691406 69.433594 53.808594 69.226562 53.921875 C 69.015625 54.035156 68.804688 54.148438 68.597656 54.261719 C 68.386719 54.371094 68.171875 54.476562 67.960938 54.585938 C 67.75 54.691406 67.539062 54.792969 67.324219 54.894531 C 67.445312 55.855469 67.503906 56.824219 67.503906 57.792969 C 66.953125 57.011719 66.359375 56.28125 65.734375 55.613281 C 65.300781 55.796875 64.867188 55.96875 64.433594 56.136719 L 63.777344 56.378906 C 63.554688 56.457031 63.335938 56.535156 63.117188 56.609375 C 63.628906 55.9375 64.109375 55.214844 64.542969 54.441406 C 63.882812 53.847656 63.199219 53.316406 62.5 52.847656 C 62.964844 52.847656 63.433594 52.855469 63.894531 52.871094 C 64.359375 52.890625 64.828125 52.917969 65.296875 52.953125 C 65.675781 52.121094 66.003906 51.238281 66.277344 50.320312 C 66.585938 51.238281 66.839844 52.175781 67.035156 53.125 C 67.503906 53.179688 67.972656 53.246094 68.441406 53.320312 L 68.796875 53.378906 L 69.148438 53.441406 C 69.382812 53.484375 69.617188 53.527344 69.851562 53.574219 " fill-opacity="1" fill-rule="nonzero"/></svg>